<svg width="23" height="23" viewBox="0 0 23 23" fill="none" xmlns="http://www.w3.org/2000/svg">
<path d="M12.458 10.5415L3.35382 19.6457M13.434 3.39088C14.6012 4.16541 15.7232 5.07854 16.7716 6.12695C17.829 7.1844 18.7489 8.31666 19.5277 9.49478M8.86899 7.56699L6.11391 6.64862C5.79662 6.54286 5.44715 6.61016 5.19183 6.8262L2.45372 9.14306C1.89317 9.61738 2.05242 10.52 2.74145 10.7739L5.33584 11.7297M11.194 17.5877L12.1498 20.1821C12.4037 20.8711 13.3063 21.0304 13.7806 20.4698L16.0975 17.7317C16.3135 17.4764 16.3808 17.1269 16.2751 16.8096L15.3567 14.0545M18.542 2.17596L13.84 2.95964C13.3323 3.04426 12.8666 3.29381 12.5149 3.66971L6.17742 10.4443C4.53469 12.2003 4.58038 14.9427 6.2807 16.643C7.98103 18.3433 10.7234 18.389 12.4794 16.7463L19.254 10.4088C19.6299 10.0571 19.8794 9.59141 19.9641 9.08369L20.7477 4.38165C20.9639 3.08441 19.8393 1.95976 18.542 2.17596Z" stroke="#2D7A3A" stroke-width="2" stroke-linecap="round" stroke-linejoin="round"/>
</svg>
